<svg width="18" height="18" viewBox="0 0 18 18" fill="none" xmlns="http://www.w3.org/2000/svg">
<path fill-rule="evenodd" clip-rule="evenodd" d="M6.33331 14.5667C6.09398 14.5667 5.89998 14.7607 5.89998 15C5.89998 15.2393 6.09398 15.4333 6.33331 15.4333C6.57263 15.4333 6.76664 15.2393 6.76664 15C6.76664 14.7607 6.57263 14.5667 6.33331 14.5667ZM4.09998 15C4.09998 13.7666 5.09987 12.7667 6.33331 12.7667C7.56674 12.7667 8.56664 13.7666 8.56664 15C8.56664 16.2334 7.56674 17.2333 6.33331 17.2333C5.09987 17.2333 4.09998 16.2334 4.09998 15Z" fill="white"/>
<path fill-rule="evenodd" clip-rule="evenodd" d="M14.3333 14.5667C14.094 14.5667 13.9 14.7607 13.9 15C13.9 15.2393 14.094 15.4333 14.3333 15.4333C14.5726 15.4333 14.7666 15.2393 14.7666 15C14.7666 14.7607 14.5726 14.5667 14.3333 14.5667ZM12.1 15C12.1 13.7666 13.0999 12.7667 14.3333 12.7667C15.5667 12.7667 16.5666 13.7666 16.5666 15C16.5666 16.2334 15.5667 17.2333 14.3333 17.2333C13.0999 17.2333 12.1 16.2334 12.1 15Z" fill="white"/>
<path fill-rule="evenodd" clip-rule="evenodd" d="M0.766663 1.66666C0.766663 1.16961 1.16961 0.766663 1.66666 0.766663H3.16803C3.70947 0.767482 4.23218 0.964975 4.6389 1.32239C5.04543 1.67965 5.3084 2.17236 5.37893 2.70893L5.56247 4.1H16.3333C16.603 4.1 16.8585 4.22092 17.0294 4.42949C17.2003 4.63805 17.2688 4.91228 17.2158 5.1767L16.0961 10.7687C16.096 10.7689 16.0961 10.7684 16.0961 10.7687C15.9938 11.2825 15.7141 11.7447 15.306 12.0733C14.9002 12.3999 14.3931 12.5744 13.8725 12.5667H6.83665C6.29289 12.5702 5.76645 12.3753 5.35614 12.0183C4.94479 11.6604 4.67856 11.1644 4.60766 10.6238M3.16579 2.56666H1.66666C1.16961 2.56666 0.766663 2.16372 0.766663 1.66666M5.79997 5.9L6.39226 10.3889C6.40601 10.4938 6.45777 10.5909 6.5376 10.6603C6.61742 10.7297 6.71989 10.7676 6.8257 10.7667L6.83333 10.7666L13.88 10.7667L13.8972 10.7668C13.9989 10.7688 14.098 10.7349 14.1773 10.6711C14.2565 10.6074 14.3108 10.5177 14.3306 10.418L15.2352 5.9H5.79997Z" fill="white"/>
</svg>
