<svg width="18" height="18" viewBox="0 0 18 18" fill="none" xmlns="http://www.w3.org/2000/svg">
<g clip-path="url(#clip0_8_426)">
<path fill-rule="evenodd" clip-rule="evenodd" d="M0.900024 3.99999C0.900024 3.66862 1.16865 3.39999 1.50002 3.39999H16.5C16.8314 3.39999 17.1 3.66862 17.1 3.99999C17.1 4.33136 16.8314 4.59999 16.5 4.59999H1.50002C1.16865 4.59999 0.900024 4.33136 0.900024 3.99999Z" fill="#B6B6B6"/>
<path fill-rule="evenodd" clip-rule="evenodd" d="M7.33332 1.26667C7.05042 1.26667 6.77911 1.37905 6.57907 1.57909C6.37903 1.77912 6.26665 2.05044 6.26665 2.33333V3.4H11.7333V2.33333C11.7333 2.05044 11.6209 1.77912 11.4209 1.57909C11.2209 1.37905 10.9495 1.26667 10.6667 1.26667H7.33332ZM12.9333 3.4V2.33333C12.9333 1.73217 12.6945 1.15564 12.2694 0.730557C11.8443 0.305474 11.2678 0.0666656 10.6667 0.0666656H7.33332C6.73216 0.0666656 6.15562 0.305474 5.73054 0.730557C5.30546 1.15564 5.06665 1.73217 5.06665 2.33333V3.4H3.16665C2.83528 3.4 2.56665 3.66863 2.56665 4V15.6667C2.56665 16.2678 2.80546 16.8444 3.23054 17.2694C3.65562 17.6945 4.23216 17.9333 4.83332 17.9333H13.1667C13.7678 17.9333 14.3443 17.6945 14.7694 17.2694C15.1945 16.8444 15.4333 16.2678 15.4333 15.6667V4C15.4333 3.66863 15.1647 3.4 14.8333 3.4H12.9333ZM3.76665 4.6V15.6667C3.76665 15.9496 3.87903 16.2209 4.07907 16.4209C4.27911 16.621 4.55042 16.7333 4.83332 16.7333H13.1667C13.4495 16.7333 13.7209 16.621 13.9209 16.4209C14.1209 16.2209 14.2333 15.9496 14.2333 15.6667V4.6H3.76665Z" fill="#B6B6B6"/>
<path fill-rule="evenodd" clip-rule="evenodd" d="M7.33328 7.56667C7.66465 7.56667 7.93328 7.83529 7.93328 8.16667V13.1667C7.93328 13.498 7.66465 13.7667 7.33328 13.7667C7.00191 13.7667 6.73328 13.498 6.73328 13.1667V8.16667C6.73328 7.83529 7.00191 7.56667 7.33328 7.56667Z" fill="#B6B6B6"/>
<path fill-rule="evenodd" clip-rule="evenodd" d="M10.6667 7.56667C10.998 7.56667 11.2667 7.83529 11.2667 8.16667V13.1667C11.2667 13.498 10.998 13.7667 10.6667 13.7667C10.3353 13.7667 10.0667 13.498 10.0667 13.1667V8.16667C10.0667 7.83529 10.3353 7.56667 10.6667 7.56667Z" fill="#B6B6B6"/>
</g>
<defs>
<clipPath id="clip0_8_426">
<rect width="18" height="18" fill="white"/>
</clipPath>
</defs>
</svg>
