<svg width="19" height="19" viewBox="0 0 19 19" fill="none" xmlns="http://www.w3.org/2000/svg">
<path fill-rule="evenodd" clip-rule="evenodd" d="M7.9375 2.06672C4.69512 2.06672 2.06666 4.69519 2.06666 7.93756C2.06666 11.1799 4.69512 13.8084 7.9375 13.8084C9.55893 13.8084 11.0254 13.1523 12.0888 12.0889C13.1522 11.0255 13.8083 9.55899 13.8083 7.93756C13.8083 4.69519 11.1799 2.06672 7.9375 2.06672ZM0.266663 7.93756C0.266663 3.70107 3.70101 0.266724 7.9375 0.266724C12.174 0.266724 15.6083 3.70107 15.6083 7.93756C15.6083 9.73112 14.9919 11.3819 13.9607 12.688L18.4697 17.197C18.8212 17.5485 18.8212 18.1183 18.4697 18.4698C18.1183 18.8213 17.5484 18.8213 17.1969 18.4698L12.6879 13.9608C11.3819 14.992 9.73106 15.6084 7.9375 15.6084C3.70101 15.6084 0.266663 12.174 0.266663 7.93756Z" fill="#E89F71"/>
</svg>
